<?xml version="1.0" encoding="UTF-8"?>
<svg id="Layer_1" xmlns="http://www.w3.org/2000/svg" version="1.1" viewBox="0 0 800 800">
  <!-- Generator: Adobe Illustrator 29.8.2, SVG Export Plug-In . SVG Version: 2.1.1 Build 3)  -->
  <defs>
    <style>
      .st0 {
        fill: #1c274c;
        fill-rule: evenodd;
      }
    </style>
  </defs>
  <path class="st0" d="M231.36,0h2.4c16.36,0,30.48,0,42.06,1.16,12.25,1.22,24.38,3.93,35.81,11.21,12.73,8.1,23.3,19.75,30.65,33.79,6.6,12.6,9.06,25.98,10.17,39.48,1.05,12.77,1.05,28.33,1.05,46.38v371.87c0,18.04,0,33.61-1.05,46.38-1.11,13.5-3.57,26.88-10.17,39.48-7.35,14.03-17.92,25.69-30.65,33.79-11.43,7.27-23.56,9.99-35.81,11.21-11.58,1.16-25.7,1.16-42.06,1.16h-2.4c-16.36,0-30.48,0-42.06-1.16-12.25-1.22-24.38-3.93-35.81-11.21-12.73-8.1-23.3-19.76-30.64-33.79-6.6-12.6-9.06-25.98-10.17-39.48-1.05-12.77-1.05-28.34-1.05-46.38V132.01c0-18.04,0-33.61,1.05-46.38,1.11-13.5,3.57-26.88,10.17-39.48,7.35-14.03,17.92-25.69,30.64-33.79,11.43-7.28,23.56-9.99,35.81-11.21C200.88,0,214.99,0,231.36,0ZM194.33,62.44c-8.38.84-11.42,2.25-12.94,3.22-4.24,2.7-7.77,6.59-10.21,11.26-.88,1.68-2.16,5.03-2.92,14.27-.79,9.66-.82,22.41-.82,42.14v369.23c0,19.74.03,32.48.82,42.15.76,9.23,2.04,12.59,2.92,14.26,2.45,4.68,5.97,8.56,10.21,11.26,1.52.97,4.56,2.38,12.94,3.22,8.76.88,20.32.91,38.22.91s29.46-.03,38.22-.91c8.38-.84,11.42-2.25,12.94-3.22,4.24-2.7,7.77-6.58,10.21-11.26.88-1.68,2.16-5.03,2.92-14.26.79-9.66.82-22.41.82-42.15V133.33c0-19.74-.03-32.48-.82-42.14-.76-9.24-2.04-12.59-2.92-14.27-2.45-4.68-5.97-8.56-10.21-11.26-1.52-.97-4.56-2.38-12.94-3.22-8.76-.88-20.32-.91-38.22-.91s-29.46.03-38.22.91ZM566.24,123.08h2.4c16.36,0,30.48,0,42.07,1.16,12.25,1.22,24.38,3.93,35.81,11.21,12.73,8.1,23.3,19.75,30.65,33.79,6.6,12.6,9.06,25.98,10.17,39.48,1.05,12.77,1.05,28.33,1.05,46.38v248.8c0,18.04,0,33.61-1.05,46.38-1.11,13.5-3.57,26.88-10.17,39.48-7.35,14.03-17.92,25.69-30.65,33.79-11.43,7.27-23.56,9.99-35.81,11.21-11.58,1.16-25.7,1.16-42.07,1.16h-2.4c-16.36,0-30.48,0-42.07-1.16-12.25-1.22-24.38-3.93-35.81-11.21-12.73-8.1-23.3-19.76-30.65-33.79-6.6-12.6-9.06-25.98-10.17-39.48-1.05-12.77-1.05-28.34-1.05-46.38v-248.8c0-18.04,0-33.6,1.05-46.38,1.11-13.5,3.57-26.88,10.17-39.48,7.35-14.03,17.92-25.69,30.65-33.79,11.43-7.28,23.56-9.99,35.81-11.21,11.58-1.16,25.7-1.16,42.07-1.16ZM529.22,185.52c-8.38.84-11.42,2.25-12.94,3.22-4.24,2.7-7.77,6.59-10.21,11.26-.88,1.68-2.16,5.03-2.92,14.27-.8,9.66-.82,22.41-.82,42.14v246.15c0,19.74.03,32.48.82,42.15.76,9.23,2.04,12.59,2.92,14.26,2.45,4.68,5.97,8.56,10.21,11.26,1.52.97,4.56,2.38,12.94,3.22,8.76.88,20.32.91,38.23.91s29.46-.03,38.23-.91c8.38-.84,11.42-2.25,12.94-3.22,4.24-2.7,7.77-6.58,10.21-11.26.88-1.68,2.16-5.03,2.92-14.26.8-9.66.82-22.41.82-42.15v-246.15c0-19.74-.03-32.48-.82-42.14-.76-9.24-2.04-12.59-2.92-14.27-2.45-4.68-5.97-8.56-10.21-11.26-1.52-.97-4.56-2.38-12.94-3.22-8.76-.88-20.32-.91-38.23-.91s-29.46.03-38.23.91ZM0,769.23c0-16.99,12.49-30.77,27.91-30.77h744.19c15.41,0,27.91,13.78,27.91,30.77s-12.49,30.77-27.91,30.77H27.91c-15.41,0-27.91-13.78-27.91-30.77Z"/>
</svg>