<?xml version="1.0" encoding="UTF-8"?>
<svg id="Layer_1" xmlns="http://www.w3.org/2000/svg" version="1.1" viewBox="0 0 800 800">
  <!-- Generator: Adobe Illustrator 29.8.2, SVG Export Plug-In . SVG Version: 2.1.1 Build 3)  -->
  <defs>
    <style>
      .st0 {
        fill: none;
        stroke: #1c274c;
        stroke-linecap: round;
        stroke-linejoin: round;
        stroke-width: 50px;
      }

      .st1 {
        fill: #1c274c;
        fill-rule: evenodd;
      }
    </style>
  </defs>
  <path class="st1" d="M107.86,0h1.12C116.61,0,123.19,0,128.58.49c5.71.51,11.37,1.66,16.7,4.75,5.93,3.43,10.87,8.35,14.29,14.29,3.07,5.33,4.22,10.98,4.73,16.7.49,5.41.49,11.98.49,19.6v157.25c0,7.64,0,14.21-.49,19.62-.51,5.71-1.66,11.37-4.73,16.69-3.43,5.93-8.35,10.87-14.29,14.29-5.33,3.07-10.98,4.22-16.7,4.73-5.41.49-11.98.49-19.6.49h-1.12c-7.64,0-14.21,0-19.6-.49-5.71-.51-11.37-1.66-16.7-4.73-5.93-3.43-10.87-8.35-14.29-14.29-3.07-5.33-4.22-10.98-4.75-16.69-.49-5.41-.49-11.98-.49-19.62V55.82c0-7.64,0-14.21.49-19.6.51-5.71,1.66-11.37,4.75-16.7,3.43-5.93,8.35-10.87,14.29-14.29,5.33-3.07,10.98-4.22,16.7-4.75C93.66,0,100.24,0,107.86,0h0ZM90.6,26.41c-3.9.36-5.32.96-6.03,1.36-1.97,1.14-3.62,2.79-4.76,4.76-.41.71-1,2.13-1.36,6.03-.37,4.09-.39,9.48-.39,17.82v156.14c0,8.35,0,13.74.39,17.82.36,3.9.96,5.32,1.36,6.03,1.14,1.97,2.79,3.62,4.76,4.76.71.41,2.13,1,6.03,1.36,4.09.37,9.48.39,17.82.39s13.74,0,17.82-.39c3.9-.36,5.32-.94,6.03-1.36,1.97-1.14,3.62-2.79,4.76-4.76.41-.71,1-2.13,1.36-6.03.37-4.09.39-9.48.39-17.82V56.38c0-8.35,0-13.74-.39-17.82-.36-3.9-.96-5.32-1.36-6.03-1.14-1.97-2.79-3.62-4.76-4.76-.71-.41-2.13-1-6.03-1.36-4.09-.37-9.48-.39-17.82-.39s-13.74,0-17.82.39ZM264,52.05h1.12c7.64,0,14.21,0,19.62.49,5.71.51,11.37,1.66,16.69,4.75,5.93,3.43,10.87,8.35,14.29,14.29,3.07,5.33,4.22,10.98,4.73,16.7.49,5.41.49,11.98.49,19.6v105.22c0,7.64,0,14.21-.49,19.62-.51,5.71-1.66,11.37-4.73,16.69-3.43,5.93-8.35,10.87-14.29,14.29-5.33,3.07-10.98,4.22-16.69,4.73-5.41.49-11.98.49-19.62.49h-1.12c-7.64,0-14.21,0-19.62-.49-5.71-.51-11.37-1.66-16.69-4.73-5.93-3.43-10.87-8.35-14.29-14.29-3.07-5.33-4.22-10.98-4.73-16.69-.49-5.41-.49-11.98-.49-19.62v-105.22c0-7.64,0-14.21.49-19.6.51-5.71,1.66-11.37,4.73-16.7,3.43-5.93,8.35-10.87,14.29-14.29,5.33-3.07,10.98-4.22,16.69-4.75,5.41-.49,11.98-.49,19.62-.49h0ZM246.74,78.45c-3.9.36-5.32.96-6.03,1.36-1.97,1.14-3.62,2.79-4.76,4.76-.41.71-1,2.13-1.36,6.03-.37,4.09-.39,9.48-.39,17.82v104.09c0,8.35,0,13.74.39,17.82.36,3.9.94,5.32,1.36,6.03,1.14,1.97,2.79,3.62,4.76,4.76.71.41,2.13,1,6.03,1.36,4.09.37,9.48.39,17.82.39s13.74,0,17.82-.39c3.9-.36,5.32-.94,6.03-1.36,1.97-1.14,3.62-2.79,4.76-4.76.41-.71,1-2.13,1.36-6.03.37-4.09.39-9.48.39-17.82v-104.09c0-8.35,0-13.74-.39-17.82-.36-3.9-.94-5.32-1.36-6.03-1.14-1.97-2.79-3.62-4.76-4.76-.71-.41-2.13-1-6.03-1.36-4.09-.37-9.48-.39-17.82-.39s-13.74,0-17.82.39ZM0,325.28c0-7.19,5.82-13.01,13.01-13.01h346.98c7.19,0,13.01,5.82,13.01,13.01s-5.82,13.01-13.01,13.01H13.01c-7.19,0-13.01-5.82-13.01-13.01Z"/>
  <path class="st0" d="M482.07,372.44c-50.89-5.03-96.23,32.15-101.26,83.05-5.03,50.89,32.15,96.23,83.05,101.26,50.89,5.03,96.23-32.15,101.26-83.05.6-6.05.6-12.15,0-18.2-4.41-43.92-39.14-78.64-83.05-83.05ZM705.04,464.58c-.06,10.06-.8,20.11-2.21,30.08l65.42,51.3c5.89,4.88,7.38,13.29,3.55,19.89l-61.88,107.07c-3.88,6.54-11.9,9.35-19.01,6.64l-64.97-26.16c-7.28-2.9-15.53-1.95-21.95,2.54-9.91,6.83-20.34,12.89-31.16,18.14-6.91,3.36-11.7,9.95-12.76,17.56l-9.74,69.29c-1.33,7.55-7.79,13.1-15.45,13.26h-123.77c-7.53-.12-13.95-5.46-15.46-12.84l-9.73-69.19c-1.11-7.7-6-14.34-13.03-17.68-10.83-5.23-21.2-11.3-31.05-18.19-6.4-4.45-14.63-5.39-21.86-2.48l-64.95,26.14c-7.1,2.7-15.13-.09-19.01-6.63l-61.88-107.07c-3.84-6.6-2.34-15.03,3.55-19.89l55.28-43.4c6.15-4.89,9.43-12.55,8.68-20.38-.53-6.04-.84-12.05-.84-18.09s.3-11.96.84-17.86c.66-7.78-2.64-15.35-8.79-20.16l-55.25-43.4c-5.79-4.9-7.24-13.24-3.43-19.79l61.88-107.07c3.88-6.54,11.9-9.35,19.01-6.64l64.97,26.16c7.28,2.9,15.53,1.95,21.95-2.54,9.91-6.83,20.34-12.89,31.16-18.14,6.91-3.36,11.7-9.95,12.76-17.56l9.74-69.29c1.33-7.55,7.79-13.1,15.45-13.26h123.77c7.53.13,13.95,5.46,15.46,12.84l9.73,69.19c1.11,7.7,6,14.34,13.03,17.68,10.83,5.23,21.2,11.3,31.05,18.19,6.4,4.45,14.63,5.39,21.86,2.48l64.95-26.14c7.1-2.7,15.13.09,19.01,6.63l61.88,107.07c3.84,6.6,2.34,15.03-3.55,19.89l-55.28,43.4c-6.18,4.88-9.48,12.54-8.75,20.38.48,5.99.8,12.01.8,18.04h-.01Z"/>
</svg>